<?xml version="1.0" ?><svg enable-background="new 0 0 512 512" id="Layer_1" version="1.1" viewBox="0 0 512 512" xml:space="preserve" xmlns="http://www.w3.org/2000/svg" xmlns:xlink="http://www.w3.org/1999/xlink"><g><g><linearGradient gradientUnits="userSpaceOnUse" id="SVGID_1_" x1="-0.0000027" x2="512" y1="256" y2="256"><stop offset="0" style="stop-color:#A364AB"/><stop offset="1" style="stop-color:#8C3D96"/></linearGradient><circle cx="256" cy="256" fill="url(#SVGID_1_)" r="256"/><linearGradient gradientUnits="userSpaceOnUse" id="SVGID_2_" x1="42.6666641" x2="469.3333435" y1="256.0005188" y2="256.0005188"><stop offset="0" style="stop-color:#8C3D96"/><stop offset="1" style="stop-color:#A364AB"/></linearGradient><path d="M256,469.3338623c-117.6314697,0-213.3333435-95.7023926-213.3333435-213.3333435    c0-117.6314545,95.7018661-213.333313,213.3333435-213.333313c117.6357422,0,213.3333435,95.7018661,213.3333435,213.333313    C469.3333435,373.6314697,373.6357422,469.3338623,256,469.3338623z" fill="url(#SVGID_2_)"/></g><g><path d="M355.5717468,168.4293365v-8.6640015c0-8.0186768-6.5344238-14.5530701-14.7504272-14.5530701    c-8.0181274,0-14.5525208,6.5343933-14.5525208,14.5530701v8.6640015H201.7349854v-8.6640015    c0-8.0186768-6.5339661-14.5530701-14.7504578-14.5530701c-8.0186615,0-14.552002,6.5343933-14.552002,14.5530701v8.6640015H144    v49.0938568h240v-49.0938568H355.5717468z" opacity="0.3"/><path d="M144,382.7872009h240V227.4223938H144V382.7872009z M212.1924744,295.2442627l33.371521,33.3717346    l70.2434692-70.2437439l6.9989319,7l-77.2424011,77.2416077l-40.3709869-40.3706665L212.1924744,295.2442627z" opacity="0.3"/></g><g><path d="M347.5717468,160.4293365v-8.6640015c0-8.0186768-6.5344238-14.5530701-14.7504272-14.5530701    c-8.0181274,0-14.5525208,6.5343933-14.5525208,14.5530701v8.6640015H193.7349854v-8.6640015    c0-8.0186768-6.5339203-14.5530701-14.7504578-14.5530701c-8.0186615,0-14.552002,6.5343933-14.552002,14.5530701v8.6640015H136    v49.0938568h240v-49.0938568H347.5717468z" fill="#FFFFFF"/><path d="M136,374.7872009h240V219.4223938H136V374.7872009z M204.1924744,287.2442627l33.371521,33.3717346    l70.2434692-70.2437286l6.9989319,6.9999847l-77.2424011,77.2416077l-40.3709869-40.3706665L204.1924744,287.2442627z" fill="#FFFFFF"/></g></g></svg>